<?xml version="1.0" encoding="UTF-8"?>
<svg width="38.7112541px" height="52.9923357px" viewBox="0 0 38.7112541 52.9923357" version="1.1" xmlns="http://www.w3.org/2000/svg" xmlns:xlink="http://www.w3.org/1999/xlink">
    <title>形状@1.5x</title>
    <g id="页面-1" stroke="none" stroke-width="1" fill="none" fill-rule="evenodd">
        <g id="iPhone-11备份-3" transform="translate(-99.407025, -123.007664)" fill="#DFF9D5" fill-rule="nonzero">
            <g id="编组" transform="translate(33.000000, 123.000000)">
                <path d="M98.4121094,0.74140625 C97.1405349,0.385620096 96.1992588,0.203958609 95.5882812,0.196421787 C75.1859375,-0.0552549113 66.2690121,-0.0552549113 66.4086389,0.196421787 C70.4587549,7.49673916 78.3087127,14.9969753 84.4089884,17.2366839 C90.8275399,19.5974703 98.0282806,16.2969533 100.386351,9.89074153 C101.350398,7.40029926 100.692318,4.35052083 98.4121094,0.74140625 Z M105.069405,15.3050308 C101.425419,20.310037 98.843041,24.2577035 97.3222715,27.1480302 C95.5335857,30.5475501 93.0916198,36.07777 89.9963737,43.7386898 C87.0396606,51.802139 90.8902637,55.2644759 98.5456295,51.4455528 L103.01508,49.2140134 C103.469691,48.9872279 104.154466,48.6124375 105.069405,48.0896421 C105.101988,41.6129536 105.11828,35.7415365 105.11828,30.4753906 C104.991451,24.9962294 104.97516,19.9394428 105.069405,15.3050308 Z" id="形状"></path>
            </g>
        </g>
    </g>
</svg>